Input #0, image2, from 'C:/Users/v4dig/Desktop/го прыгнем/рабочие процессы/кадр%04d.png':
  Duration: 00:00:04.04, start: 0.000000, bitrate: N/A
  Stream #0:0: Video: png, rgba(pc), 3840x2160 [SAR 11811:11811 DAR 16:9], 25 fps, 25 tbr, 25 tbn
Please use -b:a or -b:v, -b is ambiguous
Stream mapping:
  Stream #0:0 -> #0:0 (png (native) -> theora (libtheora))
Output #0, ogv, to 'C:/Users/v4dig/Desktop/го прыгнем/рабочие процессы/proj11.ogv':
  Metadata:
    encoder         : Lavf59.27.100
  Stream #0:0: Video: theora, yuv444p(tv, progressive), 3840x2160 [SAR 1:1 DAR 16:9], q=2-31, 5000 kb/s, 24 fps, 24 tbn
    Metadata:
      encoder         : Lavc59.37.100 libtheora
frame=    1 fps=0.0 q=-0.0 size=       3kB time=00:00:00.04 bitrate= 647.0kbits/s speed=0.108x    frame=    2 fps=1.8 q=-0.0 size=       3kB time=00:00:00.08 bitrate= 323.5kbits/s speed=0.0768x    frame=    3 fps=1.6 q=-0.0 size=       3kB time=00:00:00.12 bitrate= 215.7kbits/s speed=0.0678x    frame=    5 fps=1.9 q=-0.0 size=       3kB time=00:00:00.20 bitrate= 129.4kbits/s speed=0.0791x    frame=    7 fps=2.0 q=-0.0 size=       3kB time=00:00:00.29 bitrate=  92.4kbits/s speed=0.0849x    frame=    9 fps=2.1 q=-0.0 size=     119kB time=00:00:00.37 bitrate=2599.3kbits/s speed=0.0858x    frame=   11 fps=2.1 q=-0.0 size=     119kB time=00:00:00.45 bitrate=2126.7kbits/s speed=0.0878x    frame=   13 fps=2.1 q=-0.0 size=     512kB time=00:00:00.54 bitrate=7743.3kbits/s speed=0.0887x    frame=   15 fps=2.2 q=-0.0 size=     512kB time=00:00:00.62 bitrate=6710.9kbits/s speed=0.0913x    frame=   17 fps=2.2 q=-0.0 size=     512kB time=00:00:00.70 bitrate=5921.4kbits/s speed=0.0919x    frame=   19 fps=2.2 q=-0.0 size=     768kB time=00:00:00.79 bitrate=7947.1kbits/s speed=0.0908x    frame=   21 fps=2.2 q=-0.0 size=     768kB time=00:00:00.87 bitrate=7190.2kbits/s speed=0.0924x    frame=   23 fps=2.2 q=-0.0 size=    1024kB time=00:00:00.95 bitrate=8753.3kbits/s speed=0.0931x    frame=   25 fps=2.3 q=-0.0 size=    1024kB time=00:00:01.04 bitrate=8053.1kbits/s speed=0.0941x    frame=   26 fps=2.2 q=-0.0 size=    1024kB time=00:00:01.08 bitrate=7743.3kbits/s speed=0.0936x    frame=   28 fps=2.3 q=-0.0 size=    1024kB time=00:00:01.16 bitrate=7190.2kbits/s speed=0.0941x    frame=   30 fps=2.3 q=-0.0 size=    1024kB time=00:00:01.25 bitrate=6710.9kbits/s speed=0.0944x    frame=   32 fps=2.3 q=-0.0 size=    1280kB time=00:00:01.33 bitrate=7864.3kbits/s speed=0.0949x    frame=   33 fps=2.3 q=-0.0 size=    1280kB time=00:00:01.37 bitrate=7626.0kbits/s speed=0.0941x    frame=   35 fps=2.3 q=-0.0 size=    1536kB time=00:00:01.45 bitrate=8628.3kbits/s speed=0.0955x    frame=   37 fps=2.3 q=-0.0 size=    1536kB time=00:00:01.54 bitrate=8161.9kbits/s speed=0.0957x    frame=   39 fps=2.3 q=-0.0 size=    1536kB time=00:00:01.62 bitrate=7743.3kbits/s speed=0.0965x    frame=   41 fps=2.3 q=-0.0 size=    1536kB time=00:00:01.70 bitrate=7365.6kbits/s speed=0.0975x    frame=   43 fps=2.4 q=-0.0 size=    1536kB time=00:00:01.79 bitrate=7023.0kbits/s speed=0.0986x    frame=   45 fps=2.4 q=-0.0 size=    1536kB time=00:00:01.87 bitrate=6710.9kbits/s speed=0.0994x    frame=   47 fps=2.4 q=-0.0 size=    1792kB time=00:00:01.95 bitrate=7496.2kbits/s speed= 0.1x    frame=   49 fps=2.4 q=-0.0 size=    1792kB time=00:00:02.04 bitrate=7190.2kbits/s speed=0.101x    frame=   51 fps=2.4 q=-0.0 size=    2048kB time=00:00:02.12 bitrate=7895.2kbits/s speed=0.101x    frame=   52 fps=2.4 q=-0.0 size=    2048kB time=00:00:02.16 bitrate=7743.3kbits/s speed=0.101x    frame=   54 fps=2.4 q=-0.0 size=    2048kB time=00:00:02.25 bitrate=7456.5kbits/s speed=0.101x    frame=   56 fps=2.4 q=-0.0 size=    2048kB time=00:00:02.33 bitrate=7190.2kbits/s speed=0.101x    frame=   58 fps=2.4 q=-0.0 size=    2048kB time=00:00:02.41 bitrate=6942.3kbits/s speed=0.102x    frame=   60 fps=2.5 q=-0.0 size=    2048kB time=00:00:02.50 bitrate=6710.9kbits/s speed=0.102x    frame=   62 fps=2.5 q=-0.0 size=    2048kB time=00:00:02.58 bitrate=6494.4kbits/s speed=0.103x    frame=   64 fps=2.5 q=-0.0 size=    2048kB time=00:00:02.66 bitrate=6291.5kbits/s speed=0.103x    frame=   66 fps=2.5 q=-0.0 size=    2304kB time=00:00:02.75 bitrate=6863.4kbits/s speed=0.104x    frame=   68 fps=2.5 q=-0.0 size=    2304kB time=00:00:02.83 bitrate=6661.5kbits/s speed=0.104x    frame=   70 fps=2.5 q=-0.0 size=    2304kB time=00:00:02.91 bitrate=6471.2kbits/s speed=0.105x    frame=   72 fps=2.5 q=-0.0 size=    2304kB time=00:00:03.00 bitrate=6291.5kbits/s speed=0.105x    frame=   74 fps=2.5 q=-0.0 size=    2304kB time=00:00:03.08 bitrate=6121.4kbits/s speed=0.105x    frame=   76 fps=2.5 q=-0.0 size=    2304kB time=00:00:03.16 bitrate=5960.3kbits/s speed=0.106x    frame=   78 fps=2.6 q=-0.0 size=    2560kB time=00:00:03.25 bitrate=6452.8kbits/s speed=0.106x    frame=   80 fps=2.6 q=-0.0 size=    2560kB time=00:00:03.33 bitrate=6291.5kbits/s speed=0.107x    frame=   82 fps=2.6 q=-0.0 size=    2560kB time=00:00:03.41 bitrate=6138.0kbits/s speed=0.107x    frame=   84 fps=2.6 q=-0.0 size=    2560kB time=00:00:03.50 bitrate=5991.9kbits/s speed=0.108x    frame=   86 fps=2.6 q=-0.0 size=    2560kB time=00:00:03.58 bitrate=5852.5kbits/s speed=0.108x    frame=   88 fps=2.6 q=-0.0 size=    2560kB time=00:00:03.66 bitrate=5719.5kbits/s speed=0.108x    [libtheora @ 000002a16ec6c700] theora_encode_packetout failed [-1]
Error submitting video frame to the encoder
Conversion failed!
